<svg xmlns="http://www.w3.org/2000/svg" viewBox="0 0 980.4 961"><defs><style>.cls-1{fill:#fff;}</style></defs><g id="Layer_2" data-name="Layer 2"><g id="Calque_2" data-name="Calque 2"><rect class="cls-1" x="709.8" y="11.8" width="86.5" height="258.9"/><rect class="cls-1" x="882.2" y="11.8" width="86.5" height="258.9"/><rect class="cls-1" x="360.8" y="356.7" width="86.5" height="258.9"/><rect class="cls-1" x="533.2" y="356.7" width="86.5" height="258.9"/><rect class="cls-1" x="12.2" y="702.1" width="86.5" height="258.9"/><rect class="cls-1" x="184.7" y="702.1" width="86.5" height="258.9"/><path class="cls-1" d="M141.2,282.5C63.4,282.5,0,219.1,0,141.2S63.4,0,141.2,0,282.4,63.4,282.4,141.2C282.9,219.1,219.5,282.5,141.2,282.5Zm0-204.2a62.9,62.9,0,1,0,62.9,62.9A62.9,62.9,0,0,0,141.2,78.3Z"/><path class="cls-1" d="M839.2,627.8c-77.9,0-141.2-63.4-141.2-141.2s63.4-141.2,141.2-141.2,141.2,63.4,141.2,141.2S917.1,627.8,839.2,627.8Zm0-204.1a62.9,62.9,0,1,0,62.9,62.9c-.4-34.8-28.5-62.9-62.9-62.9Z"/><rect class="cls-1" x="709.8" y="874.5" width="258.9" height="86.5"/><rect class="cls-1" x="709.8" y="702.1" width="258.9" height="86.5"/><rect class="cls-1" x="12.2" y="529.2" width="258.9" height="86.5"/><rect class="cls-1" x="12.2" y="356.7" width="258.9" height="86.5"/></g></g></svg>